<svg width="70" height="51" viewBox="0 0 70 51" fill="none" xmlns="http://www.w3.org/2000/svg">
<g clip-path="url(#clip0_1348_2509)">
<path d="M69.26 39.27V35.95C69.26 39.79 63.21 42.91 55.75 42.91C48.29 42.91 42.24 39.79 42.24 35.95C42.24 35.05 42.57 34.19 43.18 33.41C41.13 34.06 38.71 34.43 36.12 34.43C32.85 34.43 29.85 33.83 27.51 32.83V32.12C29.85 33.12 32.85 33.72 36.12 33.72C39.15 33.72 41.95 33.2 44.21 32.33C45.11 31.57 46.28 30.91 47.66 30.38C48.8 29.42 49.5 28.3 49.61 27.1C49.61 27.02 49.63 26.95 49.63 26.87C49.63 26.83 49.63 26.8 49.63 26.76V23.44C49.63 27.28 43.58 30.4 36.12 30.4C32.85 30.4 29.85 29.8 27.51 28.8V28.12C29.85 29.12 32.85 29.72 36.12 29.72C43.37 29.72 49.28 26.78 49.61 23.08C49.61 23.01 49.62 22.94 49.63 22.87C49.63 22.83 49.63 22.8 49.63 22.76V19.44C49.63 23.28 43.58 26.4 36.12 26.4C28.66 26.4 22.61 23.28 22.61 19.44V22.54C25.6 23.82 27.51 25.74 27.51 27.9C27.51 31.74 21.46 34.86 14 34.86C6.54 34.86 0.5 31.76 0.5 27.92V31.24C0.5 31.35 0.5 31.47 0.52 31.58C0.87 35.26 6.77 38.2 14.01 38.2C21.25 38.2 27.17 35.26 27.5 31.56C27.51 31.68 27.52 31.8 27.52 31.92C27.52 35.76 21.47 38.88 14.01 38.88C6.55 38.88 0.5 35.76 0.5 31.92V35.24C0.5 35.36 0.5 35.48 0.52 35.6C0.88 39.28 6.78 42.2 14.01 42.2C21.24 42.2 27.15 39.27 27.5 35.58C27.51 35.7 27.52 35.83 27.52 35.95C27.52 39.79 21.47 42.91 14.01 42.91C6.55 42.91 0.5 39.79 0.5 35.95V39.27C0.5 39.43 0.51 39.59 0.53 39.75C1.01 43.37 6.85 46.23 14 46.23C21.15 46.23 26.99 43.37 27.47 39.76C27.49 39.91 27.5 40.07 27.5 40.23C27.5 44.07 21.45 47.19 13.99 47.19C6.53 47.19 0.5 44.06 0.5 40.21V43.53C0.5 47.37 6.55 50.49 14.01 50.49C21.47 50.49 27.4 47.43 27.52 43.64C27.52 43.6 27.52 43.57 27.52 43.53V40.43C29.86 41.43 32.86 42.03 36.13 42.03C38.33 42.03 40.41 41.76 42.25 41.27V43.55C42.25 47.39 48.3 50.51 55.76 50.51C63.22 50.51 69.15 47.45 69.27 43.66C69.27 43.62 69.27 43.59 69.27 43.55V40.23C69.27 44.07 63.22 47.19 55.76 47.19C48.3 47.19 42.25 44.07 42.25 40.23C42.25 40.07 42.26 39.91 42.28 39.75C42.76 43.37 48.6 46.23 55.75 46.23C62.9 46.23 68.74 43.37 69.22 39.76C69.24 39.63 69.25 39.51 69.25 39.38C69.25 39.34 69.25 39.31 69.25 39.27H69.26Z" stroke="white" stroke-miterlimit="10"/>
<path d="M27.51 36.16V37.11C29.85 38.11 32.85 38.71 36.12 38.71C38.32 38.71 40.4 38.44 42.24 37.95V37C40.4 37.48 38.32 37.76 36.12 37.76C32.85 37.76 29.85 37.16 27.51 36.16Z" stroke="white" stroke-miterlimit="10"/>
<path d="M49.63 29.76V27.48C49.63 28.38 49.3 29.24 48.69 30.02C48.99 29.92 49.31 29.84 49.63 29.75V29.76Z" stroke="white" stroke-miterlimit="10"/>
<path d="M55.75 29C53.55 29 51.47 29.27 49.63 29.76C49.31 29.84 49 29.93 48.69 30.03C49.29 29.24 49.63 28.38 49.63 27.49C49.63 27.36 49.63 27.24 49.61 27.12C49.5 28.32 48.8 29.44 47.66 30.4C46.28 30.93 45.11 31.59 44.21 32.35C41.95 33.22 39.15 33.74 36.12 33.74C32.85 33.74 29.85 33.14 27.51 32.14V32.85C29.85 33.85 32.85 34.45 36.12 34.45C38.71 34.45 41.12 34.07 43.18 33.43C42.58 34.22 42.24 35.08 42.24 35.97C42.24 39.81 48.29 42.93 55.75 42.93C63.21 42.93 69.26 39.81 69.26 35.97C69.26 32.13 63.21 29.01 55.75 29.01V29Z" stroke="white" stroke-miterlimit="10"/>
<path d="M36.12 29.73C32.85 29.73 29.85 29.13 27.51 28.13V28.81C29.85 29.81 32.85 30.41 36.12 30.41C43.58 30.41 49.63 27.29 49.63 23.45C49.63 23.33 49.63 23.21 49.61 23.09C49.28 26.78 43.37 29.73 36.12 29.73Z" stroke="white" stroke-miterlimit="10"/>
<path d="M36.12 26.41C43.58 26.41 49.63 23.29 49.63 19.45C49.63 19.33 49.63 19.21 49.61 19.09C49.28 22.78 43.37 25.73 36.12 25.73C28.87 25.73 22.98 22.8 22.63 19.11C22.62 19.22 22.61 19.34 22.61 19.45C22.61 23.29 28.66 26.41 36.12 26.41Z" stroke="white" stroke-miterlimit="10"/>
<path d="M36.12 25.73C43.37 25.73 49.28 22.79 49.61 19.09C49.61 19.02 49.62 18.95 49.63 18.88C49.63 18.84 49.63 18.81 49.63 18.77V15.45C49.63 19.29 43.58 22.41 36.12 22.41C28.66 22.41 22.61 19.29 22.61 15.45V18.77C22.61 18.88 22.61 19 22.63 19.11C22.98 22.79 28.88 25.73 36.12 25.73Z" stroke="white" stroke-miterlimit="10"/>
<path d="M36.12 22.41C43.58 22.41 49.63 19.29 49.63 15.45C49.63 15.33 49.63 15.21 49.61 15.09C49.28 18.78 43.37 21.73 36.12 21.73C28.87 21.73 22.98 18.8 22.63 15.11C22.62 15.22 22.61 15.34 22.61 15.45C22.61 19.29 28.66 22.41 36.12 22.41Z" stroke="white" stroke-miterlimit="10"/>
<path d="M36.12 21.73C43.37 21.73 49.28 18.79 49.61 15.09C49.61 15.02 49.62 14.95 49.63 14.88C49.63 14.84 49.63 14.81 49.63 14.77V11.45C49.63 15.29 43.58 18.41 36.12 18.41C28.66 18.41 22.61 15.29 22.61 11.45V14.77C22.61 14.88 22.61 15 22.63 15.11C22.98 18.79 28.88 21.73 36.12 21.73Z" stroke="white" stroke-miterlimit="10"/>
<path d="M36.12 18.41C43.58 18.41 49.63 15.29 49.63 11.45C49.63 11.33 49.63 11.21 49.61 11.09C49.28 14.78 43.37 17.73 36.12 17.73C28.87 17.73 22.98 14.8 22.63 11.11C22.62 11.22 22.61 11.34 22.61 11.45C22.61 15.29 28.66 18.41 36.12 18.41Z" stroke="white" stroke-miterlimit="10"/>
<path d="M36.12 17.73C43.37 17.73 49.28 14.79 49.61 11.09C49.61 11.02 49.62 10.95 49.63 10.88C49.63 10.84 49.63 10.81 49.63 10.77V7.45001C49.63 11.29 43.58 14.41 36.12 14.41C28.66 14.41 22.61 11.29 22.61 7.45001V10.77C22.61 10.88 22.61 11 22.63 11.11C22.98 14.79 28.88 17.73 36.12 17.73Z" stroke="white" stroke-miterlimit="10"/>
<path d="M36.12 14.42C43.5814 14.42 49.63 11.3039 49.63 7.46C49.63 3.6161 43.5814 0.5 36.12 0.5C28.6586 0.5 22.61 3.6161 22.61 7.46C22.61 11.3039 28.6586 14.42 36.12 14.42Z" stroke="white" stroke-miterlimit="10"/>
<path d="M36.12 13.31C42.3939 13.31 47.48 10.6909 47.48 7.45999C47.48 4.22912 42.3939 1.60999 36.12 1.60999C29.846 1.60999 24.76 4.22912 24.76 7.45999C24.76 10.6909 29.846 13.31 36.12 13.31Z" stroke="white" stroke-miterlimit="10"/>
<path d="M33.78 9.74C34.13 9.83 34.55 9.9 35.01 9.94V10.52H37.22V9.95C37.64 9.91 38.03 9.86 38.33 9.78C39.11 9.57 39.62 9.07 39.66 8.47C39.7 7.88 39.27 7.37 38.54 7.15C38 6.98 37.21 6.83 36.38 6.67C35.6 6.52 34.72 6.35 34.39 6.22C34.3 6.18 34.26 6.1 34.27 6C34.3 5.83 34.51 5.61 34.92 5.5C35.4 5.37 36.23 5.37 36.84 5.49C37.06 5.53 37.45 5.63 37.58 5.81L39.17 5.51C38.91 5.14 38.3 4.84 37.46 4.68C37.22 4.63 36.96 4.6 36.7 4.57V4H34.49V4.65C34.37 4.67 34.25 4.7 34.14 4.73C33.27 4.96 32.68 5.42 32.59 5.93C32.52 6.34 32.8 6.7 33.36 6.92C33.89 7.13 34.81 7.31 35.79 7.49C36.51 7.63 37.26 7.77 37.67 7.9C37.81 7.94 38 8.15 37.98 8.45C37.96 8.75 37.75 8.97 37.56 9.02C36.97 9.18 35.34 9.19 34.55 8.99C34.31 8.93 34.26 8.69 34.26 8.63L32.57 8.61C32.55 8.92 32.79 9.5 33.78 9.76V9.74Z" stroke="white" stroke-miterlimit="10"/>
<path d="M22.61 22.56C20.27 21.56 17.27 20.96 14 20.96C6.54001 20.96 0.490005 24.08 0.490005 27.92C0.490005 31.76 6.54001 34.88 14 34.88C21.46 34.88 27.51 31.76 27.51 27.92C27.51 25.76 25.6 23.83 22.61 22.56Z" stroke="white" stroke-miterlimit="10"/>
<path d="M14.01 33.77C20.2839 33.77 25.37 31.1509 25.37 27.92C25.37 24.6891 20.2839 22.07 14.01 22.07C7.73604 22.07 2.64999 24.6891 2.64999 27.92C2.64999 31.1509 7.73604 33.77 14.01 33.77Z" stroke="white" stroke-miterlimit="10"/>
<path d="M11.65 30.22C12 30.31 12.43 30.38 12.89 30.42V31.01H15.12V30.43C15.54 30.39 15.93 30.34 16.24 30.25C17.03 30.04 17.54 29.53 17.58 28.93C17.62 28.34 17.19 27.83 16.45 27.6C15.9 27.43 15.11 27.28 14.27 27.12C13.49 26.97 12.6 26.8 12.26 26.67C12.17 26.63 12.12 26.55 12.14 26.45C12.17 26.28 12.38 26.05 12.79 25.94C13.27 25.81 14.11 25.81 14.73 25.93C14.95 25.97 15.34 26.08 15.47 26.25L17.07 25.95C16.8 25.58 16.19 25.28 15.34 25.11C15.1 25.06 14.84 25.03 14.58 25V24.43H12.35V25.09C12.23 25.11 12.11 25.14 12 25.17C11.12 25.41 10.53 25.87 10.44 26.38C10.37 26.79 10.66 27.15 11.22 27.38C11.76 27.59 12.68 27.77 13.67 27.96C14.4 28.1 15.15 28.24 15.56 28.37C15.7 28.41 15.89 28.62 15.87 28.92C15.85 29.22 15.64 29.44 15.44 29.49C14.84 29.65 13.2 29.66 12.41 29.45C12.16 29.39 12.12 29.15 12.12 29.09L10.42 29.07C10.4 29.38 10.64 29.97 11.64 30.23L11.65 30.22Z" stroke="white" stroke-miterlimit="10"/>
<path d="M55.75 46.23C48.6 46.23 42.75 43.37 42.28 39.75C42.26 39.91 42.25 40.07 42.25 40.23C42.25 44.07 48.3 47.19 55.76 47.19C63.22 47.19 69.27 44.07 69.27 40.23C69.27 40.07 69.26 39.92 69.24 39.76C68.76 43.38 62.91 46.23 55.77 46.23H55.75Z" stroke="white" stroke-miterlimit="10"/>
<path d="M55.75 41.81C62.024 41.81 67.11 39.1908 67.11 35.96C67.11 32.7291 62.024 30.11 55.75 30.11C49.476 30.11 44.39 32.7291 44.39 35.96C44.39 39.1908 49.476 41.81 55.75 41.81Z" stroke="white" stroke-miterlimit="10"/>
<path d="M53.4 38.25C53.75 38.34 54.18 38.41 54.64 38.45V39.03H56.86V38.45C57.28 38.41 57.67 38.36 57.98 38.27C58.77 38.06 59.28 37.55 59.32 36.95C59.36 36.36 58.93 35.85 58.2 35.62C57.66 35.45 56.86 35.3 56.03 35.14C55.25 34.99 54.36 34.82 54.03 34.69C53.94 34.65 53.9 34.57 53.91 34.47C53.94 34.3 54.15 34.08 54.56 33.97C55.04 33.84 55.87 33.84 56.49 33.96C56.71 34 57.1 34.1 57.23 34.28L58.82 33.98C58.56 33.61 57.94 33.31 57.1 33.14C56.86 33.09 56.6 33.06 56.34 33.03V32.46H54.12V33.11C54 33.13 53.88 33.16 53.77 33.19C52.9 33.43 52.3 33.89 52.22 34.39C52.15 34.8 52.44 35.16 53 35.38C53.54 35.59 54.46 35.77 55.44 35.96C56.17 36.1 56.92 36.24 57.32 36.37C57.46 36.41 57.65 36.62 57.63 36.92C57.61 37.22 57.4 37.44 57.2 37.49C56.6 37.65 54.97 37.66 54.18 37.46C53.94 37.4 53.89 37.16 53.89 37.1L52.19 37.08C52.17 37.39 52.41 37.98 53.41 38.24L53.4 38.25Z" stroke="white" stroke-miterlimit="10"/>
</g>
<defs>
<clipPath id="clip0_1348_2509">
<rect width="69.76" height="51" fill="white"/>
</clipPath>
</defs>
</svg>
